<svg xmlns="http://www.w3.org/2000/svg" viewBox="0 0 96 96" fill="none">
 <defs>
  <linearGradient id="side" x1="20" y1="18" x2="83" y2="91" gradientUnits="userSpaceOnUse"><stop stop-color="#9c78d2"/><stop offset="1" stop-color="#58368e"/></linearGradient>
  <linearGradient id="glass" x1="14" y1="10" x2="83" y2="87" gradientUnits="userSpaceOnUse"><stop stop-color="#c9b5f1"/><stop offset=".25" stop-color="#ad90e0"/><stop offset=".72" stop-color="#8a67c2"/><stop offset="1" stop-color="#7150ad"/></linearGradient>
  <linearGradient id="shine" x1="16" y1="14" x2="80" y2="54" gradientUnits="userSpaceOnUse"><stop stop-color="#fff" stop-opacity=".72"/><stop offset="1" stop-color="#fff" stop-opacity="0"/></linearGradient>
  <linearGradient id="wave" x1="24" y1="32" x2="73" y2="71" gradientUnits="userSpaceOnUse"><stop stop-color="#fff"/><stop offset="1" stop-color="#eee3ff"/></linearGradient>
  <filter id="shadow" x="0" y="0" width="96" height="96" filterUnits="userSpaceOnUse"><feGaussianBlur stdDeviation="2.5"/></filter>
 </defs>
 <ellipse cx="49" cy="87" rx="32" ry="4" fill="#4a2378" fill-opacity=".18" filter="url(#shadow)"/>
 <rect x="9" y="12" width="78" height="78" rx="23" fill="url(#side)"/>
 <rect x="8" y="7" width="78" height="78" rx="23" fill="url(#glass)" stroke="#e7d8fc" stroke-width=".8"/>
 <path d="M13 43V30q0-17 17-17h27" stroke="url(#shine)" stroke-width="3" stroke-linecap="round"/>
 <path d="M23 32c8-11 15 11 23 0s16 11 24 0M23 45c8-11 15 11 23 0s16 11 24 0M23 58c8-11 15 11 23 0s16 11 24 0" stroke="#553484" stroke-opacity=".22" stroke-width="5" stroke-linecap="round" transform="translate(0 2.5)"/>
 <path d="M23 32c8-11 15 11 23 0s16 11 24 0M23 45c8-11 15 11 23 0s16 11 24 0M23 58c8-11 15 11 23 0s16 11 24 0" stroke="url(#wave)" stroke-width="4.5" stroke-linecap="round"/>
 <circle cx="69" cy="22" r="3" fill="#e9d9ff"/><circle cx="68.3" cy="21.3" r="1" fill="#fff"/>
 <path d="M29 81h34q17 0 19-16" stroke="#64449e" stroke-opacity=".32" stroke-width="1.5" stroke-linecap="round"/>
</svg>
