<svg xmlns="http://www.w3.org/2000/svg" viewBox="0 0 160 160" fill="none">
 <defs>
  <linearGradient id="back" x1="43" y1="26" x2="121" y2="115" gradientUnits="userSpaceOnUse"><stop stop-color="#faf7ff"/><stop offset=".46" stop-color="#d9ccf6"/><stop offset="1" stop-color="#9373cd"/></linearGradient>
  <linearGradient id="edge" x1="34" y1="57" x2="104" y2="140" gradientUnits="userSpaceOnUse"><stop stop-color="#b99ee8"/><stop offset="1" stop-color="#6d4bac"/></linearGradient>
  <linearGradient id="face" x1="34" y1="51" x2="115" y2="140" gradientUnits="userSpaceOnUse"><stop stop-color="#fff"/><stop offset=".35" stop-color="#f0eafa"/><stop offset="1" stop-color="#b79cdd"/></linearGradient>
  <linearGradient id="star" x1="107" y1="24" x2="126" y2="50" gradientUnits="userSpaceOnUse"><stop stop-color="#eaddff"/><stop offset=".45" stop-color="#b193e4"/><stop offset="1" stop-color="#7854b9"/></linearGradient>
  <filter id="shadow" x="0" y="0" width="160" height="160" filterUnits="userSpaceOnUse"><feGaussianBlur stdDeviation="5"/></filter>
 </defs>
 <ellipse cx="81" cy="139" rx="49" ry="7" fill="#442077" fill-opacity=".15" filter="url(#shadow)"/>
 <g transform="rotate(10 90 75)"><rect x="53" y="28" width="67" height="88" rx="13" fill="#7953b8" fill-opacity=".45"/><rect x="51" y="24" width="67" height="88" rx="13" fill="url(#back)" stroke="#f7f2ff" stroke-width="1.5"/><path d="M58 61V39q0-8 8-8h35" stroke="#fff" stroke-opacity=".7" stroke-width="3" stroke-linecap="round"/></g>
 <g transform="rotate(-7 75 92)"><rect x="30" y="53" width="84" height="84" rx="15" fill="url(#edge)"/><rect x="28" y="47" width="84" height="84" rx="15" fill="url(#face)" stroke="#f3eaff" stroke-width="1.5"/><path d="M34 79V64q0-11 11-11h37" stroke="#fff" stroke-opacity=".85" stroke-width="3" stroke-linecap="round"/><rect x="46" y="69" width="20" height="17" rx="4" fill="#a485d5" fill-opacity=".72"/><path d="M74 73h21M74 82h15M46 98h49M46 108h38" stroke="#8460b6" stroke-opacity=".72" stroke-width="4" stroke-linecap="round"/><path d="M45 127h52q10 0 10-10" stroke="#8663b9" stroke-opacity=".3" stroke-width="2" stroke-linecap="round"/></g>
 <path d="m119 21 4.8 13.2L137 39l-13.2 4.8L119 57l-4.8-13.2L101 39l13.2-4.8Z" fill="url(#star)" stroke="#f3eaff" stroke-width="1.2"/>
 <path d="m119 26 2.8 10.2L133 39l-11.2 2.8" stroke="#fff" stroke-opacity=".7" stroke-width="1.5" stroke-linecap="round"/>
</svg>
